<?xml version="1.0" standalone="no"?>
<!DOCTYPE svg PUBLIC "-//W3C//DTD SVG 20010904//EN"
 "http://www.w3.org/TR/2001/REC-SVG-20010904/DTD/svg10.dtd">
<svg version="1.0" xmlns="http://www.w3.org/2000/svg"
 width="242.000000pt" height="250.000000pt" viewBox="0 0 242.000000 250.000000"
 preserveAspectRatio="xMidYMid meet">

<g transform="translate(0.000000,250.000000) scale(0.100000,-0.100000)"
fill="#000000" stroke="none">
<path d="M1020 1910 l0 -50 -200 0 -200 0 0 -50 0 -50 -50 0 -50 0 0 -50 0
-50 -50 0 -50 0 0 -250 0 -250 -50 0 -50 0 0 -200 0 -200 50 0 50 0 0 -50 0
-50 50 0 50 0 0 -50 0 -50 50 0 50 0 0 -100 0 -100 700 0 700 0 0 50 0 50 50
0 50 0 0 100 0 100 50 0 50 0 0 100 0 100 -50 0 -50 0 0 100 0 100 -50 0 -50
0 0 200 0 200 50 0 50 0 0 50 0 50 50 0 50 0 0 50 0 50 -50 0 -50 0 0 50 0 50
-50 0 -50 0 0 50 0 50 -100 0 -100 0 0 50 0 50 -400 0 -400 0 0 -50z m800
-100 l0 -50 100 0 100 0 0 -50 0 -50 50 0 50 0 0 -50 0 -50 -50 0 -50 0 0 -50
0 -50 -50 0 -50 0 0 -100 0 -100 -200 0 -200 0 0 -50 0 -50 200 0 200 0 0 -50
0 -50 50 0 50 0 0 -100 0 -100 50 0 50 0 0 -100 0 -100 -50 0 -50 0 0 -100 0
-100 -350 0 -350 0 0 50 0 50 -50 0 -50 0 0 -50 0 -50 -50 0 -50 0 0 50 0 50
-50 0 -50 0 0 -50 0 -50 -150 0 -150 0 0 50 0 50 150 0 150 0 0 50 0 50 50 0
50 0 0 50 0 50 50 0 50 0 0 50 0 50 50 0 50 0 0 100 0 100 -50 0 -50 0 0 50 0
50 -50 0 -50 0 0 50 0 50 -50 0 -50 0 0 50 0 50 -50 0 -50 0 0 150 0 150 -50
0 -50 0 0 -150 0 -150 -50 0 -50 0 0 -50 0 -50 100 0 100 0 0 -50 0 -50 50 0
50 0 0 -200 0 -200 -50 0 -50 0 0 -50 0 -50 -200 0 -200 0 0 50 0 50 -50 0
-50 0 0 200 0 200 50 0 50 0 0 50 0 50 50 0 50 0 0 50 0 50 -50 0 -50 0 0 150
0 150 50 0 50 0 0 50 0 50 50 0 50 0 0 -50 0 -50 50 0 50 0 0 50 0 50 50 0 50
0 0 -50 0 -50 50 0 50 0 0 50 0 50 50 0 50 0 0 50 0 50 350 0 350 0 0 -50z"/>
<path d="M1120 1710 l0 -50 -50 0 -50 0 0 -150 0 -150 50 0 50 0 0 -50 0 -50
50 0 50 0 0 50 0 50 50 0 50 0 0 50 0 50 300 0 300 0 0 50 0 50 -300 0 -300 0
0 50 0 50 -50 0 -50 0 0 50 0 50 -50 0 -50 0 0 -50z m100 -200 l0 -150 -50 0
-50 0 0 150 0 150 50 0 50 0 0 -150z"/>
<path d="M620 1510 l0 -150 50 0 50 0 0 150 0 150 -50 0 -50 0 0 -150z"/>
<path d="M620 1110 l0 -50 -50 0 -50 0 0 -100 0 -100 50 0 50 0 0 -50 0 -50
50 0 50 0 0 50 0 50 50 0 50 0 0 100 0 100 -50 0 -50 0 0 50 0 50 -50 0 -50 0
0 -50z"/>
<path d="M1420 1010 l0 -150 50 0 50 0 0 -50 0 -50 50 0 50 0 0 -50 0 -50
-150 0 -150 0 0 -50 0 -50 300 0 300 0 0 50 0 50 50 0 50 0 0 50 0 50 -50 0
-50 0 0 -50 0 -50 -100 0 -100 0 0 50 0 50 -50 0 -50 0 0 50 0 50 -50 0 -50 0
0 150 0 150 -50 0 -50 0 0 -150z"/>
</g>
</svg>
